<?xml version="1.0" standalone="no"?>
<!DOCTYPE svg PUBLIC "-//W3C//DTD SVG 20010904//EN"
 "http://www.w3.org/TR/2001/REC-SVG-20010904/DTD/svg10.dtd">
<svg version="1.0" xmlns="http://www.w3.org/2000/svg"
 width="260.000000pt" height="260.000000pt" viewBox="0 0 260.000000 260.000000"
 preserveAspectRatio="xMidYMid meet">
<metadata>
Created by potrace 1.14, written by Peter Selinger 2001-2017
</metadata>
<g transform="translate(0.000000,260.000000) scale(0.100000,-0.100000)"
fill="#000000" stroke="none">
<path d="M1214 2388 c-4 -6 -3 -8 3 -5 6 4 13 0 17 -8 3 -8 0 -17 -6 -21 -7
-5 -8 -2 -3 6 6 10 1 12 -19 8 -14 -3 -29 -1 -33 5 -3 5 -1 7 5 3 6 -3 13 -3
16 2 2 4 -6 8 -18 8 -18 0 -22 -5 -19 -20 4 -19 3 -19 -7 -4 -10 16 -12 16
-30 -2 -11 -11 -26 -17 -34 -14 -8 3 -17 0 -21 -6 -4 -7 -14 -2 -26 12 -12 13
-18 18 -15 11 4 -6 3 -13 -1 -16 -5 -2 -2 -2 5 0 7 1 11 -1 8 -6 -3 -5 -15
-11 -26 -14 -11 -3 -18 -2 -15 3 3 4 -2 11 -11 14 -12 4 -15 2 -11 -9 4 -8 1
-17 -5 -21 -6 -4 -8 -3 -4 4 4 7 -5 10 -24 10 -20 -1 -26 -4 -19 -9 7 -4 17
-5 23 -2 5 3 6 1 2 -6 -4 -6 -12 -8 -18 -5 -8 5 -9 1 -5 -12 5 -14 2 -12 -13
6 -18 23 -19 23 -16 4 3 -13 -1 -21 -9 -21 -8 0 -11 5 -8 10 4 6 1 7 -6 3 -7
-5 -10 -14 -7 -22 3 -8 0 -11 -9 -7 -8 3 -13 9 -10 13 3 5 1 12 -5 15 -6 4
-10 3 -9 -2 3 -17 -1 -33 -8 -32 -17 3 -33 -1 -31 -8 0 -5 -2 -16 -7 -26 -7
-17 -8 -17 -22 0 -11 13 -13 14 -10 3 2 -8 -10 -26 -27 -40 -16 -14 -27 -20
-23 -14 4 7 0 15 -9 18 -8 3 -12 2 -9 -4 6 -9 -8 -14 -28 -11 -4 0 -6 -2 -6
-6 4 -27 -3 -45 -16 -40 -8 4 -17 1 -21 -5 -4 -6 -3 -8 3 -5 5 3 10 0 10 -7 0
-8 -6 -12 -12 -9 -14 5 -49 -26 -40 -35 3 -4 10 -1 14 7 6 10 10 9 15 -5 4
-10 4 -15 0 -11 -4 4 -13 -1 -21 -11 -8 -9 -12 -11 -8 -5 4 9 1 11 -9 7 -16
-6 -23 -25 -8 -23 19 3 33 -2 27 -10 -10 -18 33 -33 56 -20 15 8 19 8 15 0 -4
-6 0 -11 9 -11 10 0 13 -5 9 -12 -5 -8 -1 -8 12 2 29 22 30 24 11 17 -11 -4
-16 -3 -12 3 3 6 15 10 25 10 10 0 22 4 25 10 3 6 -1 7 -12 4 -17 -5 -17 -5 0
6 9 6 14 17 11 23 -4 7 -3 9 1 4 5 -4 19 2 31 14 16 15 24 17 29 8 6 -8 4 -10
-5 -4 -9 6 -11 4 -5 -6 5 -8 5 -11 0 -7 -10 9 -35 -10 -35 -25 0 -6 7 -2 15 9
8 10 15 15 15 10 0 -5 6 -3 14 4 8 6 13 17 10 25 -3 7 0 16 7 21 8 5 10 3 4
-6 -5 -8 -3 -11 6 -8 8 3 13 11 11 17 -1 6 2 11 8 11 5 0 10 -8 11 -17 0 -16
1 -16 7 -2 4 9 15 15 25 13 9 -1 15 2 11 7 -3 5 -9 7 -14 4 -4 -3 -7 2 -6 10
1 9 5 15 9 15 4 0 12 0 18 0 5 0 7 -6 4 -12 -4 -7 -1 -6 7 3 7 9 20 14 28 11
13 -4 13 -3 2 11 -12 14 -11 15 18 7 29 -8 30 -7 18 7 -12 15 -11 15 9 5 16
-9 24 -9 29 0 4 6 3 8 -4 4 -6 -3 -13 -2 -16 3 -7 11 13 9 32 -2 7 -5 9 -14 6
-20 -4 -8 -2 -7 7 1 12 11 12 14 0 21 -11 7 -10 11 6 20 11 5 23 8 26 4 4 -3
13 0 22 7 12 10 15 10 15 -1 0 -10 3 -10 12 -1 8 8 15 9 25 1 7 -7 13 -8 13
-3 0 5 5 2 11 -6 8 -11 9 -9 4 10 -6 20 -5 23 6 13 15 -15 33 -17 24 -4 -3 5
-1 13 5 16 6 4 10 3 9 -2 -4 -24 3 -25 17 -3 8 14 13 17 10 8 -5 -18 10 -36
16 -18 5 15 46 21 54 8 5 -7 2 -8 -6 -3 -9 5 -11 4 -6 -4 4 -6 12 -9 17 -5 5
3 15 1 22 -5 22 -17 73 0 61 21 -4 7 -2 8 4 4 6 -4 8 -14 5 -24 -6 -15 -5 -15
11 -2 16 12 19 12 27 -3 6 -9 15 -17 22 -17 7 0 6 4 -3 10 -13 9 -13 10 0 10
13 0 13 1 0 10 -10 7 -11 10 -2 10 7 0 15 -7 19 -16 5 -13 7 -13 14 -2 7 10 9
9 9 -4 0 -10 5 -18 11 -18 5 0 8 4 5 8 -2 4 7 8 20 8 19 0 24 -4 21 -17 -3
-13 0 -16 11 -12 10 4 13 2 8 -5 -5 -9 0 -9 19 -2 20 8 29 6 43 -8 21 -21 53
-36 49 -23 -1 5 2 8 8 7 5 0 9 -10 9 -22 -1 -21 7 -24 55 -24 19 0 21 -3 12
-14 -10 -12 -8 -13 8 -9 12 3 18 10 14 17 -4 6 1 5 10 -3 9 -7 17 -22 17 -33
0 -15 5 -19 20 -15 11 3 18 1 14 -4 -3 -5 6 -14 20 -20 19 -9 23 -16 16 -29
-6 -12 -5 -17 5 -17 8 0 12 4 9 9 -3 4 0 8 5 8 6 0 11 -7 11 -15 0 -8 5 -15
11 -15 5 0 7 -5 3 -12 -4 -7 -3 -8 5 -4 9 6 9 11 0 22 -6 8 -9 17 -5 21 3 3 6
1 6 -6 0 -7 4 -10 9 -7 5 4 8 -6 6 -21 -2 -24 -1 -25 10 -9 10 13 14 14 19 4
3 -7 4 -3 2 9 -2 13 1 21 8 20 6 -1 10 4 8 11 -1 6 1 11 5 11 27 -4 42 3 37
16 -4 8 -9 13 -13 10 -4 -2 -8 2 -8 10 0 13 3 13 17 0 14 -13 17 -13 17 0 0 8
-3 13 -6 11 -3 -2 -12 2 -19 10 -10 10 -10 14 -1 14 7 0 9 3 6 6 -4 4 -14 1
-23 -7 -13 -11 -15 -11 -14 2 4 24 -1 55 -7 42 -7 -20 -23 -15 -16 5 6 14 4
15 -9 4 -13 -10 -18 -10 -24 -1 -4 8 -3 9 4 5 17 -10 15 3 -2 20 -17 17 -30
19 -20 2 4 -7 3 -8 -5 -4 -9 6 -9 11 1 24 12 14 10 14 -10 3 -22 -12 -23 -11
-17 8 4 15 3 21 -7 19 -7 -2 -12 3 -10 10 1 8 -2 11 -8 7 -8 -5 -8 -11 0 -20
8 -10 8 -15 -1 -21 -7 -4 -9 -3 -5 4 3 6 1 14 -5 17 -5 4 -8 13 -5 21 4 10 -1
11 -22 4 -26 -10 -26 -10 -7 6 16 14 17 16 3 11 -21 -8 -48 1 -48 15 0 6 8 4
18 -3 14 -11 13 -10 -2 9 -18 21 -32 30 -23 15 3 -5 -1 -13 -8 -20 -10 -10
-14 -9 -19 3 -3 8 -10 13 -15 9 -6 -3 -21 11 -35 32 -15 21 -26 32 -26 24 0
-10 -6 -9 -26 4 -15 9 -23 12 -20 6 5 -7 -1 -11 -14 -11 -13 0 -19 4 -14 12 4
6 3 8 -4 4 -6 -3 -12 -1 -15 6 -2 7 -3 5 -2 -4 4 -23 -12 -33 -29 -19 -7 6
-16 8 -19 4 -4 -3 -7 -1 -7 6 0 7 -7 11 -14 8 -10 -4 -13 -1 -9 8 4 12 10 11
35 -6 16 -12 32 -19 35 -15 3 3 -2 8 -11 12 -9 3 -13 10 -10 15 3 5 -2 6 -10
3 -9 -3 -16 -1 -16 4 0 7 -14 9 -35 7 -105 -14 -110 -14 -95 -5 8 5 11 12 7
16 -3 4 -13 1 -22 -6 -8 -7 -15 -8 -15 -4 0 5 -14 10 -31 10 -17 1 -26 -1 -20
-5 6 -4 -7 -7 -29 -7 -22 0 -40 3 -40 7 0 13 -29 18 -36 7z m144 -33 c-3 -3
-9 2 -12 12 -6 14 -5 15 5 6 7 -7 10 -15 7 -18z m123 -8 c-10 -9 -11 -8 -5 6
3 10 9 15 12 12 3 -3 0 -11 -7 -18z m204 -37 c6 -1 12 -3 14 -6 2 -2 -7 -1
-20 2 -13 3 -29 6 -36 6 -7 1 -10 5 -7 10 3 4 13 4 22 -1 9 -5 22 -10 27 -11z
m-324 -69 c7 11 9 10 9 -4 0 -20 -22 -19 -26 1 -2 9 -1 9 3 1 4 -8 8 -7 14 2z
m26 -13 c-3 -8 -6 -5 -6 6 -1 11 2 17 5 13 3 -3 4 -12 1 -19z m218 -36 c-3 -3
-11 0 -18 7 -9 10 -8 11 6 5 10 -3 15 -9 12 -12z"/>
<path d="M1426 2378 c3 -5 10 -6 15 -3 13 9 11 12 -6 12 -8 0 -12 -4 -9 -9z"/>
<path d="M1056 2358 c3 -5 10 -6 15 -3 13 9 11 12 -6 12 -8 0 -12 -4 -9 -9z"/>
<path d="M1721 2303 c-1 -17 16 -25 25 -12 4 7 3 9 -4 5 -5 -3 -13 0 -15 6 -4
9 -6 10 -6 1z"/>
<path d="M1276 2231 c-3 -5 1 -11 9 -14 9 -4 12 -1 8 9 -6 16 -10 17 -17 5z"/>
<path d="M716 2204 c-5 -14 -4 -15 9 -4 17 14 19 20 6 20 -5 0 -12 -7 -15 -16z"/>
<path d="M1090 2200 c0 -5 5 -10 11 -10 5 0 7 5 4 10 -3 6 -8 10 -11 10 -2 0
-4 -4 -4 -10z"/>
<path d="M1635 2160 c-3 -5 -1 -10 4 -10 6 0 11 5 11 10 0 6 -2 10 -4 10 -3 0
-8 -4 -11 -10z"/>
<path d="M1800 2080 c-13 -8 -12 -10 3 -10 9 0 17 5 17 10 0 12 -1 12 -20 0z"/>
<path d="M1846 2022 c-3 -5 1 -9 9 -9 8 0 12 4 9 9 -3 4 -7 8 -9 8 -2 0 -6 -4
-9 -8z"/>
<path d="M2023 1988 c-12 -20 -12 -38 -1 -38 6 0 7 7 4 16 -4 12 -2 15 9 10 8
-3 15 -1 15 4 0 15 -18 21 -27 8z"/>
<path d="M627 1983 c-4 -3 -7 -11 -7 -17 0 -6 4 -4 10 4 5 8 12 11 16 7 4 -3
1 -15 -7 -24 -12 -17 -12 -17 5 -1 10 9 15 21 12 27 -8 12 -20 14 -29 4z"/>
<path d="M879 1886 c9 -10 7 -17 -6 -27 -14 -12 -16 -12 -11 1 4 11 0 16 -13
16 -12 0 -15 -4 -9 -10 14 -14 12 -29 -2 -19 -19 11 -39 13 -33 2 3 -5 1 -17
-4 -28 -12 -21 8 -47 25 -33 4 4 3 0 -3 -8 -6 -8 -11 -19 -11 -23 0 -5 -4 -12
-8 -15 -4 -4 -4 -1 1 7 6 10 4 12 -4 7 -9 -6 -8 -13 5 -27 15 -17 15 -19 0
-25 -9 -3 -13 -10 -10 -15 3 -5 10 -7 15 -4 5 4 9 2 9 -4 0 -5 -5 -11 -12 -13
-6 -2 -12 -12 -14 -21 -1 -9 2 -15 7 -11 5 3 6 11 3 17 -4 7 -4 9 1 5 5 -5 9
-23 10 -42 1 -25 -2 -32 -13 -28 -11 4 -10 -3 4 -24 14 -22 15 -26 3 -17 -13
10 -16 10 -16 -2 0 -8 6 -15 12 -15 6 0 12 -7 12 -15 0 -8 -4 -12 -9 -9 -10 7
-10 1 2 -30 8 -22 7 -26 -8 -27 -11 -1 -8 -4 8 -9 l25 -8 -25 -2 c-14 -1 -19
-4 -12 -7 7 -2 17 -14 23 -25 8 -15 8 -19 0 -14 -7 5 -9 1 -5 -8 3 -9 11 -13
18 -9 6 3 6 1 -1 -8 -17 -18 -16 -26 3 -33 15 -6 15 -4 3 11 -7 10 -9 15 -5
11 5 -4 16 -2 25 5 14 10 14 10 3 -5 -9 -11 -10 -18 -2 -23 8 -5 8 -11 -1 -21
-9 -11 -8 -14 4 -14 21 0 79 -68 70 -83 -5 -9 -2 -8 9 0 15 13 28 8 28 -11 0
-6 -5 -4 -11 4 -9 13 -10 13 -6 0 2 -9 13 -14 27 -12 14 2 20 0 16 -7 -4 -6
-2 -11 3 -11 6 0 11 4 11 9 0 17 32 5 52 -20 11 -13 17 -17 13 -9 -4 9 0 7 8
-3 15 -18 15 -18 20 0 4 17 5 17 6 0 1 -16 9 -18 60 -15 32 1 64 -2 72 -8 17
-14 49 -14 46 -1 -1 5 4 11 11 12 7 2 8 1 3 -1 -6 -3 -7 -12 -4 -20 4 -12 8
-12 19 3 9 12 16 15 21 7 8 -12 57 -13 68 -2 3 3 -8 4 -25 3 -16 -1 -30 1 -30
5 0 10 82 6 100 -5 8 -5 11 -4 7 2 -4 6 0 14 9 17 10 4 13 2 8 -6 -5 -7 -2 -9
8 -5 9 3 20 1 25 -4 7 -7 9 -2 8 15 -2 14 1 28 5 31 5 3 7 -3 5 -15 -2 -11 1
-23 7 -26 7 -4 8 -2 4 4 -9 16 7 15 22 0 7 -7 12 -8 12 -4 0 5 -8 15 -17 23
-10 7 -13 12 -8 11 6 -1 21 2 34 6 16 6 26 4 33 -5 7 -10 8 -8 3 8 -3 12 -1
25 6 29 7 4 9 3 6 -3 -4 -6 2 -13 13 -16 11 -3 19 -2 18 2 -3 22 4 41 12 36 6
-4 7 -12 4 -18 -4 -7 -3 -8 1 -4 5 4 10 14 11 22 3 18 46 74 58 74 5 1 3 -6
-4 -14 -7 -8 -8 -15 -4 -15 17 0 35 38 22 46 -7 5 -8 3 -3 -6 5 -9 4 -11 -4
-6 -9 6 -9 11 0 22 6 8 8 14 4 14 -5 0 0 9 10 20 10 11 15 20 10 20 -4 0 -2 7
5 15 7 8 9 22 6 31 -5 14 -4 15 8 5 12 -10 14 -9 9 8 -3 12 -10 18 -17 15 -6
-3 -3 1 7 9 17 14 24 33 9 23 -4 -2 -9 5 -9 17 -2 17 0 19 7 7 8 -13 10 -12
10 3 0 9 -4 17 -8 17 -5 0 -8 14 -8 30 0 17 5 30 12 30 7 0 16 4 19 10 3 5 0
7 -8 4 -8 -3 -18 0 -23 7 -4 8 -3 10 4 5 7 -4 12 -2 12 3 0 6 -6 11 -12 11 -9
0 -8 4 2 10 13 9 13 10 0 10 -9 1 -5 6 10 16 19 11 20 14 5 10 -17 -5 -20 -1
-21 24 -1 25 1 29 13 19 11 -10 11 -14 1 -20 -9 -6 -9 -9 -1 -9 21 0 23 17 4
36 -16 17 -16 20 -2 32 14 11 14 11 -3 5 -18 -6 -18 -5 -1 20 19 30 10 37 -11
10 -13 -17 -14 -17 -7 2 3 11 11 27 17 35 6 8 6 12 2 8 -5 -4 -15 0 -22 10 -9
13 -9 19 -1 25 7 4 -3 5 -22 2 -21 -4 -37 -1 -41 6 -5 7 -12 0 -21 -19 -12
-27 -14 -29 -27 -14 -7 10 -11 12 -8 6 11 -23 14 -64 4 -64 -5 0 -8 7 -5 15 4
8 2 17 -2 19 -4 3 -8 -7 -7 -22 1 -18 6 -26 16 -24 12 3 12 1 3 -9 -8 -8 -17
-9 -26 -3 -7 5 -1 -2 13 -15 16 -15 19 -21 8 -18 -10 4 -20 2 -23 -4 -4 -5
-11 -6 -17 -3 -7 4 -8 2 -4 -5 6 -9 11 -9 22 0 11 9 14 9 14 0 0 -7 4 -10 8
-7 10 6 9 -24 0 -40 -4 -5 -3 -16 2 -24 6 -10 3 -21 -8 -34 -11 -12 -12 -16
-3 -11 11 6 13 4 8 -7 -3 -9 0 -21 6 -27 9 -9 8 -11 -5 -6 -11 4 -18 2 -18 -4
0 -6 5 -11 11 -11 5 0 7 -5 4 -10 -5 -8 -11 -8 -20 0 -9 8 -15 8 -20 0 -4 -6
-3 -9 2 -8 4 2 19 -5 33 -15 l25 -18 -30 7 -30 7 25 -22 c14 -13 19 -20 13
-16 -12 6 -17 -6 -14 -32 1 -7 -3 -13 -9 -13 -6 0 -8 5 -5 10 3 6 2 10 -4 10
-5 0 -9 -9 -8 -19 0 -11 4 -18 8 -15 4 2 11 -1 15 -7 4 -7 3 -9 -2 -6 -6 3
-16 2 -24 -4 -10 -6 -11 -9 -2 -9 6 0 12 -5 12 -11 0 -5 -4 -7 -10 -4 -5 3
-10 1 -10 -5 0 -6 -5 -8 -12 -4 -8 5 -8 2 1 -10 12 -15 12 -17 0 -14 -8 2 -13
-2 -12 -9 2 -7 -4 -10 -12 -7 -10 4 -15 0 -15 -11 0 -10 5 -13 12 -9 7 4 8 3
4 -5 -6 -9 -11 -9 -22 0 -10 8 -14 8 -14 0 0 -6 -7 -11 -16 -11 -8 0 -13 -4
-9 -9 3 -6 -3 -8 -15 -6 -11 2 -22 0 -25 -5 -3 -4 -14 -6 -26 -3 -12 4 -25 0
-30 -8 -6 -10 -9 -10 -9 -1 0 6 -5 12 -11 12 -5 0 -8 -4 -4 -9 3 -5 0 -13 -6
-17 -8 -5 -9 -3 -4 6 6 9 2 10 -15 5 -13 -4 -20 -3 -17 2 4 5 -1 10 -9 10 -8
0 -13 -6 -10 -14 4 -10 1 -11 -14 -3 -16 9 -19 8 -14 -7 2 -10 -1 -8 -7 5 -7
12 -16 22 -21 22 -5 0 -6 -4 -3 -10 4 -6 -1 -7 -11 -3 -13 5 -15 3 -9 -8 5 -8
-3 -5 -16 7 -13 12 -31 24 -39 28 -9 5 -9 2 2 -7 10 -8 14 -18 10 -22 -4 -5
-1 -5 7 0 9 5 12 4 7 -3 -8 -13 -36 -5 -36 10 0 6 -7 4 -17 -3 -13 -11 -17
-11 -20 -1 -3 6 -9 9 -15 6 -5 -4 -4 4 2 17 13 23 12 24 -7 7 -22 -20 -33 -23
-33 -7 0 5 4 7 10 4 6 -3 7 1 4 9 -3 9 -10 14 -14 11 -5 -3 -12 0 -16 6 -5 9
-11 7 -21 -6 -11 -16 -13 -16 -13 -3 0 9 -7 19 -16 22 -10 4 -14 13 -10 28 3
13 3 17 0 11 -4 -10 -9 -9 -21 2 -8 8 -18 13 -23 10 -5 -3 -12 0 -16 6 -4 7
-3 9 3 6 6 -4 13 0 17 8 3 8 1 15 -4 15 -5 0 -6 7 -3 17 5 12 3 14 -7 8 -8 -5
-11 -4 -6 3 3 5 3 12 -1 15 -5 2 -3 2 4 1 7 -2 15 2 19 8 5 7 2 8 -6 3 -10 -6
-12 -4 -7 7 3 9 -1 24 -9 35 -14 17 -14 17 -5 -4 6 -12 7 -24 3 -27 -8 -5 -12
8 -13 47 0 11 -5 15 -12 10 -7 -4 -7 -1 1 10 8 9 11 21 7 27 -3 5 0 10 7 10
10 0 10 2 -1 9 -7 5 -10 14 -7 20 4 6 2 11 -5 11 -8 0 -8 4 1 15 7 8 16 13 19
10 4 -2 8 2 8 10 0 8 -4 12 -9 9 -4 -3 -8 3 -8 13 0 11 -6 25 -12 32 -10 11
-10 13 0 7 9 -5 12 5 12 39 0 26 -4 44 -9 40 -5 -3 -13 0 -17 7 -4 7 -4 10 1
6 4 -4 15 -2 23 5 11 8 14 8 9 0 -4 -6 -3 -14 2 -17 5 -4 8 2 7 11 -2 11 -11
18 -25 17 -17 -1 -19 1 -10 12 9 11 7 14 -9 14 -12 0 -24 5 -28 12 -4 6 -3 8
3 5 5 -3 10 0 10 8 0 8 -4 12 -9 9 -4 -3 -8 0 -8 5 0 6 -5 11 -11 11 -8 0 -8
-4 0 -14z m861 -32 c0 -2 -7 -4 -15 -4 -8 0 -15 4 -15 10 0 5 7 7 15 4 8 -4
15 -8 15 -10z m40 -16 c0 -5 -7 -3 -15 6 -8 8 -15 18 -15 22 0 3 7 1 15 -6 8
-7 15 -17 15 -22z m-954 -11 c0 -13 -6 -24 -13 -24 -8 0 -8 7 0 24 13 29 15
29 13 0z m264 -538 c0 -6 -4 -7 -10 -4 -5 3 -10 11 -10 16 0 6 5 7 10 4 6 -3
10 -11 10 -16z m180 -153 c0 -3 -4 -8 -10 -11 -5 -3 -10 -1 -10 4 0 6 5 11 10
11 6 0 10 -2 10 -4z"/>
<path d="M787 1779 c7 -7 15 -10 18 -7 3 3 -2 9 -12 12 -14 6 -15 5 -6 -5z"/>
<path d="M957 1715 c-4 -8 -3 -16 1 -19 4 -3 9 4 9 15 2 23 -3 25 -10 4z"/>
<path d="M1640 1691 c-7 -15 -7 -19 5 -17 8 1 18 6 22 11 5 4 2 5 -6 0 -11 -6
-13 -4 -8 8 9 23 0 21 -13 -2z"/>
<path d="M1650 1649 c0 -5 -6 -7 -12 -3 -9 5 -9 3 1 -9 15 -19 33 -13 24 8 -6
17 -13 20 -13 4z"/>
<path d="M340 1640 c0 -6 -5 -8 -12 -4 -10 6 -10 5 -1 -8 15 -17 7 -29 -13
-21 -8 3 -11 10 -7 16 4 6 1 7 -6 3 -9 -6 -8 -13 6 -29 10 -11 13 -17 6 -14
-6 4 -22 2 -35 -3 -23 -10 -23 -10 0 -6 22 4 22 4 5 -25 -13 -21 -14 -32 -6
-40 15 -15 5 -39 -15 -39 -13 0 -12 -3 4 -16 10 -8 14 -13 8 -10 -7 3 -15 -1
-18 -10 -3 -8 -2 -12 4 -9 6 3 10 -1 10 -10 0 -9 -4 -14 -9 -10 -9 5 -5 -45 5
-54 2 -2 -2 -11 -9 -19 -8 -11 -9 -14 0 -9 8 5 11 0 10 -13 -1 -15 -6 -19 -22
-15 -18 5 -18 5 -3 -5 11 -7 15 -17 11 -28 -6 -15 -5 -16 12 -2 19 15 19 15 1
-14 -18 -28 -18 -29 0 -22 17 6 17 6 1 -12 -15 -16 -15 -20 -1 -34 8 -8 18
-30 21 -49 6 -41 -4 -36 -11 5 -3 16 -8 31 -11 34 -3 4 -3 -9 1 -28 3 -19 6
-43 6 -52 0 -10 8 -24 19 -32 23 -16 31 -48 15 -58 -7 -5 -5 -8 5 -8 26 0 33
-32 12 -48 -16 -13 -16 -13 7 -7 20 6 23 5 13 -6 -7 -7 -13 -18 -13 -23 0 -6
5 -4 10 4 8 13 10 13 10 1 0 -8 10 -25 22 -38 22 -24 13 -32 -12 -10 -9 7 -8
4 1 -8 9 -11 14 -27 12 -35 -3 -9 -1 -11 4 -5 4 6 14 11 22 13 12 3 12 0 2
-11 -9 -12 -8 -15 6 -13 10 0 17 -5 16 -11 -2 -7 2 -13 9 -13 6 0 9 -3 6 -6
-4 -3 -17 0 -30 6 l-23 12 23 -21 c12 -12 20 -27 16 -32 -3 -5 0 -8 8 -7 7 2
12 -3 10 -10 -1 -8 2 -11 8 -7 8 5 5 13 -6 26 -16 18 -16 19 -1 13 9 -3 18
-10 18 -15 1 -5 3 -13 4 -19 1 -5 3 -15 4 -21 0 -5 6 -7 13 -3 8 5 9 2 5 -9
-4 -12 -1 -17 9 -17 12 0 15 -6 11 -21 -3 -12 -3 -18 0 -15 4 3 13 0 21 -7 13
-10 14 -9 3 13 -11 24 -11 24 3 6 11 -13 13 -23 6 -30 -9 -9 54 -81 72 -81 5
0 12 -5 16 -11 4 -6 18 -17 31 -24 19 -10 22 -10 16 1 -5 8 -4 10 3 5 7 -4 12
-15 12 -24 0 -15 2 -15 10 -2 8 13 10 12 10 -3 0 -14 5 -17 23 -12 18 6 20 5
10 -6 -7 -7 -13 -18 -13 -24 0 -5 5 -3 10 5 5 8 10 10 10 4 0 -7 7 -15 16 -18
14 -5 15 -4 5 8 -11 13 -9 13 13 3 14 -7 21 -13 16 -15 -19 -7 -10 -20 10 -15
14 4 20 0 20 -10 0 -9 5 -19 12 -23 6 -4 8 -3 4 4 -4 7 2 10 14 9 11 -1 19 -6
16 -13 -2 -6 5 -11 17 -10 13 1 21 -4 20 -11 -2 -7 2 -13 7 -13 6 0 10 4 10 9
0 14 -26 32 -35 23 -5 -4 -5 -2 -1 5 7 13 36 6 36 -9 0 -5 4 -6 10 -3 5 3 10
1 10 -5 0 -6 5 -8 12 -4 7 4 8 3 4 -5 -4 -6 -12 -9 -17 -6 -5 4 -9 1 -9 -4 0
-13 10 -14 29 -2 18 12 63 -8 54 -23 -4 -6 0 -6 8 1 12 10 18 10 29 0 9 -8 11
-9 6 0 -3 6 -3 14 2 17 4 2 8 23 7 45 -1 22 3 37 8 34 4 -3 6 -11 4 -17 -3 -7
0 -13 7 -13 6 0 12 8 12 18 0 10 -5 15 -10 12 -5 -4 -7 1 -3 10 3 9 2 19 -4
23 -6 3 -8 13 -4 23 4 10 -1 8 -15 -6 -21 -24 -31 -29 -28 -15 0 4 -4 18 -10
32 -8 19 -11 20 -11 7 -1 -14 -5 -16 -19 -8 -12 6 -23 7 -30 1 -9 -7 -9 -7 -2
2 15 18 12 32 -3 19 -17 -14 -27 -4 -20 17 4 13 2 13 -9 -2 -11 -13 -17 -16
-22 -7 -4 6 -12 9 -17 6 -5 -4 -9 2 -9 11 0 16 1 16 20 -1 11 -10 20 -15 20
-10 0 17 -35 34 -47 23 -9 -7 -13 -7 -14 1 -3 26 -4 30 -11 36 -4 4 -5 -5 -2
-21 5 -28 4 -28 -10 -9 -9 11 -16 16 -16 11 0 -5 -9 -1 -20 9 -11 10 -20 23
-20 29 0 6 7 3 14 -6 7 -10 17 -14 21 -10 5 4 5 1 0 -7 -6 -10 -4 -12 5 -6 10
6 7 12 -11 26 -13 9 -28 17 -33 16 -5 -1 -15 9 -22 22 -10 19 -13 21 -16 6 -3
-15 -7 -13 -31 9 -16 15 -33 24 -38 21 -5 -3 -6 1 -3 9 4 10 1 16 -9 16 -10 0
-15 7 -12 18 2 12 -3 18 -16 18 -10 0 -19 -5 -19 -10 0 -5 -3 -7 -6 -4 -3 4
-1 15 5 26 8 16 7 23 -7 33 -15 13 -16 12 -3 -3 9 -12 10 -18 2 -18 -6 0 -14
14 -17 30 -6 27 -19 36 -47 31 -5 -1 -6 3 -3 8 4 5 2 12 -4 16 -6 4 -7 12 -3
18 14 22 11 33 -8 34 -11 1 -19 -3 -19 -9 0 -6 -2 -9 -5 -6 -3 3 -1 18 5 33 9
25 9 27 -5 15 -8 -7 -18 -10 -22 -6 -3 3 0 6 7 6 9 0 8 6 -5 20 -10 11 -14 20
-10 20 5 0 -1 9 -14 21 -12 12 -20 24 -16 27 3 3 12 -4 21 -16 16 -23 34 -29
34 -11 0 5 -5 7 -10 4 -6 -3 -13 1 -17 10 -3 10 0 21 8 26 10 6 5 8 -15 6 -16
-1 -31 4 -33 11 -3 6 0 12 7 12 6 0 8 -5 4 -12 -5 -7 -3 -8 6 -3 10 6 10 11
-3 20 -17 12 -24 31 -9 21 5 -3 9 2 9 10 0 8 -6 13 -13 10 -8 -3 -10 3 -7 17
4 18 3 19 -6 7 -17 -24 -13 -2 5 25 9 14 12 25 6 25 -6 0 -12 -6 -14 -12 -3
-7 -7 -2 -10 10 -4 12 -1 25 4 29 7 4 8 1 3 -8 -8 -12 -6 -12 8 0 22 18 21 20
-6 17 -15 -2 -24 2 -24 11 0 8 8 11 21 8 12 -3 15 -2 8 1 -6 3 -10 10 -7 14 3
5 0 12 -6 16 -8 5 -9 3 -4 -7 8 -12 6 -12 -9 0 -12 10 -14 17 -6 25 13 13 13
29 0 21 -5 -3 -10 -1 -10 4 0 6 7 11 15 11 8 0 15 -4 15 -10 0 -5 5 -10 10
-10 6 0 5 8 -2 19 -7 11 -15 18 -18 16 -14 -9 -6 31 9 42 14 11 13 13 -7 19
-17 5 -20 9 -11 15 7 4 18 4 24 -1 8 -7 12 -5 12 5 0 8 -4 12 -9 9 -11 -7 -10
7 1 25 6 9 5 25 0 40 -8 24 -8 24 5 8 13 -17 14 -16 12 6 0 15 -6 23 -13 20
-7 -3 -13 0 -13 6 0 6 10 11 23 11 22 1 22 1 -3 16 -14 8 -17 13 -7 10 9 -3
17 -1 17 4 0 6 -4 10 -10 10 -5 0 -10 4 -10 10 0 5 8 6 18 3 15 -6 15 -4 -2
13 -11 10 -24 20 -30 20 -6 1 -16 2 -23 3 -6 0 -19 8 -27 17 -9 9 -16 11 -16
4z m-46 -116 c3 -8 2 -12 -4 -9 -6 3 -10 10 -10 16 0 14 7 11 14 -7z m115 -87
c-7 -12 -13 -24 -15 -26 -2 -2 2 41 5 57 1 2 6 0 11 -3 7 -4 6 -14 -1 -28z
m-107 -361 c7 4 8 2 4 -5 -9 -13 -26 -5 -25 12 0 9 2 8 6 -1 2 -6 10 -9 15 -6z
m469 -473 c11 -15 11 -16 0 -6 -7 6 -21 9 -30 6 -14 -4 -14 -3 -1 6 8 6 16 11
16 11 1 0 8 -8 15 -17z m-162 -39 c13 -13 29 -20 35 -17 6 3 8 3 4 -2 -4 -4
-2 -15 4 -24 7 -9 0 -5 -16 9 -15 14 -29 24 -31 23 -2 -1 -19 12 -37 29 -26
25 -28 28 -9 18 14 -7 36 -23 50 -36z m476 -124 c3 -5 1 -10 -4 -10 -6 0 -11
5 -11 10 0 6 2 10 4 10 3 0 8 -4 11 -10z m-25 -100 c0 -4 -7 -7 -15 -6 -23 3
-26 12 -5 13 11 1 20 -2 20 -7z"/>
<path d="M385 1641 c-3 -5 -2 -12 3 -15 5 -3 9 1 9 9 0 17 -3 19 -12 6z"/>
<path d="M953 1615 c0 -8 4 -12 9 -9 4 3 8 9 8 15 0 5 -4 9 -8 9 -5 0 -9 -7
-9 -15z"/>
<path d="M2231 1613 c7 -7 6 -14 -1 -18 -6 -3 -7 -12 -3 -18 3 -7 -4 -3 -17 8
l-23 20 13 -25 c12 -23 12 -24 -3 -11 -10 7 -18 11 -18 7 -1 -3 -2 -9 -3 -13
-1 -5 -5 -14 -10 -21 -7 -12 -4 -12 14 -2 12 6 24 9 28 6 3 -3 0 -6 -8 -6 -10
0 -10 -4 1 -17 13 -16 12 -17 -2 -5 -14 10 -18 10 -23 -3 -3 -9 -2 -14 3 -11
5 3 12 -1 15 -10 3 -8 11 -12 17 -8 8 4 9 3 5 -5 -4 -6 -11 -9 -15 -7 -4 3
-13 0 -21 -6 -12 -8 -12 -9 3 -4 19 6 23 -4 7 -20 -7 -7 -6 -11 4 -11 8 0 13
4 10 8 -2 4 1 11 8 15 7 4 10 4 6 -1 -4 -4 -3 -14 4 -22 6 -8 7 -13 2 -12 -28
5 -37 -2 -19 -15 18 -13 32 -51 14 -40 -5 3 -7 9 -4 14 3 5 1 11 -4 15 -6 3
-8 -4 -5 -17 9 -37 10 -110 1 -115 -4 -2 -5 -9 -1 -14 3 -5 10 -6 16 -3 7 4 8
2 4 -5 -4 -6 -13 -9 -19 -5 -7 3 -3 -2 7 -10 22 -18 14 -21 -14 -6 -13 7 -21
7 -25 0 -4 -6 -3 -9 2 -8 4 2 9 -1 10 -6 1 -5 7 -12 14 -17 8 -4 10 -11 6 -15
-3 -4 -13 -1 -21 5 -12 10 -14 9 -11 -6 1 -10 8 -17 13 -16 7 2 9 -4 5 -14 -5
-12 -3 -14 8 -8 8 5 5 -1 -5 -13 -21 -24 -31 -29 -20 -9 5 8 2 8 -9 -2 -18
-14 -24 -26 -8 -17 5 3 9 -6 9 -19 0 -22 -3 -24 -17 -13 -14 12 -15 11 -1 -6
21 -26 22 -46 2 -38 -15 5 -16 4 -2 -13 12 -15 12 -17 1 -10 -11 6 -13 4 -7
-10 6 -16 4 -16 -10 -4 -16 13 -16 12 -6 -7 13 -24 5 -39 -13 -24 -8 7 -10 2
-7 -19 2 -16 -1 -37 -7 -48 -11 -16 -11 -16 -6 4 3 12 1 24 -4 28 -6 3 -8 0
-5 -8 3 -8 -2 -21 -10 -30 -8 -8 -13 -17 -10 -20 4 -3 3 -11 -2 -18 -5 -9 -10
-7 -16 7 -6 14 -7 11 -3 -10 5 -23 3 -27 -10 -22 -9 3 -14 2 -11 -3 3 -4 -3
-16 -14 -26 -15 -14 -17 -21 -9 -32 10 -11 8 -12 -6 -7 -13 5 -16 4 -11 -5 9
-14 -22 -53 -35 -45 -5 3 -9 -1 -9 -9 0 -8 -7 -18 -16 -21 -8 -3 -13 -10 -10
-14 3 -5 -1 -9 -9 -9 -8 0 -13 4 -12 8 2 6 -3 9 -18 9 -3 0 0 -10 6 -23 11
-20 11 -21 -4 -9 -14 12 -16 11 -12 -8 2 -13 2 -20 -2 -16 -3 3 -13 0 -22 -6
-13 -10 -14 -10 -3 2 6 8 12 19 12 24 0 6 -7 0 -16 -13 -13 -18 -18 -20 -26
-10 -7 10 -8 8 -3 -7 4 -15 0 -24 -10 -28 -9 -3 -14 -10 -10 -15 3 -5 1 -12
-4 -15 -10 -7 -9 20 2 30 10 11 8 24 -4 24 -5 0 -8 -4 -4 -9 3 -5 -4 -16 -15
-24 -11 -7 -17 -17 -13 -20 3 -4 1 -7 -5 -7 -7 0 -12 4 -12 9 0 15 -32 6 -42
-12 -11 -21 -59 -46 -75 -40 -6 2 -14 -1 -18 -6 -3 -6 -1 -11 6 -11 7 0 10 -3
7 -6 -4 -3 -15 -1 -27 5 -14 8 -22 8 -27 -1 -4 -6 -3 -8 4 -4 6 3 13 2 17 -4
6 -10 3 -11 -34 -14 -11 0 -22 -4 -26 -7 -3 -4 8 -5 24 -4 17 1 28 -1 25 -6
-3 -5 -11 -9 -18 -9 -8 0 -19 -6 -25 -13 -8 -10 -7 -14 4 -14 8 0 12 4 9 9 -3
4 1 8 8 8 9 0 13 -10 12 -30 -2 -30 10 -48 20 -31 4 5 2 12 -4 16 -5 3 -10 12
-10 18 0 7 5 4 11 -6 6 -9 15 -15 20 -11 6 3 3 -9 -6 -27 l-16 -34 21 25 c14
16 20 19 16 8 -3 -12 -1 -15 10 -11 8 3 13 12 10 20 -4 8 -1 11 5 7 6 -4 16 0
21 7 8 11 9 10 4 -3 -3 -10 -2 -18 3 -18 5 0 11 9 14 21 5 17 9 19 26 9 12 -6
21 -7 20 -3 -4 22 2 25 16 7 14 -18 14 -18 10 4 -3 18 -1 21 12 14 18 -11 53
-4 53 9 0 11 -22 7 -33 -6 -5 -6 -7 -4 -4 5 2 8 10 15 18 15 8 1 13 6 12 13
-2 6 4 9 12 6 8 -4 12 -11 8 -17 -3 -6 -1 -7 6 -3 6 4 9 11 6 16 -3 5 -1 11 5
15 5 3 10 1 10 -4 0 -6 5 -11 11 -11 6 0 9 6 6 14 -3 8 4 22 15 33 12 10 18
13 15 7 -4 -7 -1 -14 7 -17 20 -8 28 4 13 21 -11 13 -9 14 13 2 23 -12 24 -12
11 3 -9 12 -10 17 -2 17 7 0 10 4 7 8 -3 5 1 9 9 9 11 0 12 -4 4 -13 -7 -8 -6
-14 2 -20 7 -4 9 -3 6 4 -4 5 7 22 24 36 17 14 27 26 22 26 -5 0 -14 -5 -21
-12 -6 -6 -14 -9 -17 -6 -3 3 10 13 29 22 26 12 34 21 30 34 -5 14 -4 15 5 2
8 -12 13 -12 23 -2 10 10 10 14 -1 21 -11 7 -9 10 8 16 11 3 21 11 21 16 0 5
4 9 10 9 5 0 7 -8 4 -17 -4 -14 -2 -13 7 2 18 27 22 58 7 49 -6 -4 -8 -3 -4 4
3 6 19 8 34 6 26 -5 26 -5 7 11 -11 9 -14 13 -6 9 11 -5 13 -3 8 9 -3 9 -2 19
4 22 5 4 6 11 3 17 -4 6 -2 8 4 4 15 -9 44 23 37 42 -4 12 -3 12 9 3 11 -9 16
-9 22 0 5 8 3 9 -6 4 -10 -6 -12 -4 -7 9 4 10 7 22 7 27 0 6 5 7 10 4 11 -7
11 -6 15 40 4 45 4 45 21 45 14 0 15 2 3 17 -12 14 -12 16 0 9 9 -6 12 -5 9 5
-2 7 5 22 16 32 12 10 16 16 10 13 -7 -3 -14 0 -17 8 -8 20 3 27 24 15 15 -7
17 -6 13 6 -4 8 -10 15 -14 15 -5 0 -8 9 -7 20 1 11 5 20 10 20 5 0 7 -7 4
-14 -4 -10 -1 -13 9 -9 10 4 12 9 4 18 -5 6 -6 15 -2 19 11 12 10 66 -2 66 -6
0 -4 5 4 10 11 7 11 10 2 10 -10 0 -10 3 0 14 7 8 18 11 23 8 6 -3 4 2 -4 11
-11 14 -11 17 0 17 11 0 11 2 0 9 -12 7 -12 13 -3 24 7 7 9 17 5 20 -3 4 0 15
8 24 13 16 12 17 -3 4 -13 -9 -18 -10 -18 -2 0 7 -3 10 -8 8 -4 -3 -7 8 -7 23
-1 26 1 27 20 18 18 -10 19 -10 6 6 -13 15 -13 19 0 27 8 5 9 9 3 9 -5 0 -15
-5 -21 -11 -9 -9 -12 -7 -10 9 0 11 4 19 7 17 3 -2 6 5 6 16 0 10 -3 19 -7 19
-4 0 -9 10 -12 23 -6 21 -6 21 8 3 18 -24 19 -16 4 18 -7 14 -15 23 -19 21 -4
-2 -7 2 -7 10 0 8 4 12 9 9 4 -3 5 2 2 10 -3 9 -10 13 -15 10 -5 -3 -9 2 -9
10 0 9 -7 16 -16 16 -14 0 -14 -3 -4 -15 7 -9 11 -17 9 -19 -2 -2 -13 8 -23
22 -11 14 -15 23 -10 19 6 -3 16 -2 23 2 8 5 -1 8 -22 7 -26 -1 -33 -4 -26
-13z m122 -317 c-3 -4 -9 -2 -14 5 -13 22 -11 31 5 17 8 -7 12 -17 9 -22z m-7
-41 c1 -8 -1 -17 -5 -19 -4 -3 -7 6 -7 19 0 25 8 25 12 0z m-6 -113 c0 -13
-12 -22 -22 -16 -10 6 -1 24 13 24 5 0 9 -4 9 -8z m-310 -362 c-13 -11 -25
-20 -28 -20 -3 0 3 9 13 20 10 11 23 20 28 20 6 0 0 -9 -13 -20z m-318 -258
c-7 -2 -10 -8 -7 -12 3 -5 1 -11 -4 -14 -5 -4 -8 2 -6 11 2 10 4 22 4 26 1 5
6 5 13 1 9 -6 9 -9 0 -12z"/>
<path d="M2202 1606 c7 -8 17 -12 22 -9 4 3 2 9 -5 14 -22 13 -31 11 -17 -5z"/>
<path d="M1625 1580 c-3 -6 1 -7 9 -4 18 7 21 14 7 14 -6 0 -13 -4 -16 -10z"/>
<path d="M1804 1569 c-3 -6 2 -18 12 -27 17 -16 17 -16 5 0 -7 9 -10 22 -6 28
3 5 4 10 1 10 -3 0 -8 -5 -12 -11z"/>
<path d="M958 1543 c7 -3 16 -2 19 1 4 3 -2 6 -13 5 -11 0 -14 -3 -6 -6z"/>
<path d="M258 1493 c7 -3 16 -2 19 1 4 3 -2 6 -13 5 -11 0 -14 -3 -6 -6z"/>
<path d="M1630 1480 c-9 -6 -10 -10 -3 -10 6 0 15 5 18 10 8 12 4 12 -15 0z"/>
<path d="M1790 1395 c-7 -9 -8 -15 -2 -15 5 0 12 7 16 15 3 8 4 15 2 15 -2 0
-9 -7 -16 -15z"/>
<path d="M1773 1358 c-12 -21 -12 -37 1 -32 6 2 12 13 13 24 2 23 -2 25 -14 8z"/>
<path d="M236 1352 c-3 -5 1 -9 9 -9 8 0 12 4 9 9 -3 4 -7 8 -9 8 -2 0 -6 -4
-9 -8z"/>
<path d="M2190 1319 c0 -5 5 -7 10 -4 6 3 10 8 10 11 0 2 -4 4 -10 4 -5 0 -10
-5 -10 -11z"/>
<path d="M1497 1303 c-4 -3 -7 -11 -7 -17 0 -6 5 -5 12 2 6 6 9 14 7 17 -3 3
-9 2 -12 -2z"/>
<path d="M1465 1289 c-4 -6 -5 -12 -2 -15 2 -3 7 2 10 11 7 17 1 20 -8 4z"/>
<path d="M1155 1280 c-3 -5 -1 -10 4 -10 6 0 11 5 11 10 0 6 -2 10 -4 10 -3 0
-8 -4 -11 -10z"/>
<path d="M396 1272 c-2 -4 4 -8 14 -8 10 0 16 4 14 8 -3 4 -9 8 -14 8 -5 0
-11 -4 -14 -8z"/>
<path d="M870 1265 c0 -8 6 -14 13 -12 6 1 11 -6 11 -15 -1 -10 4 -14 13 -11
11 4 10 10 -8 29 -26 28 -29 29 -29 9z"/>
<path d="M1709 1253 c-12 -16 -12 -17 2 -6 9 7 20 9 24 5 5 -4 5 -1 1 6 -9 16
-11 15 -27 -5z"/>
<path d="M1024 1169 c-5 -8 -3 -9 6 -4 10 6 12 4 7 -8 -3 -10 -2 -17 3 -17 13
0 13 27 1 35 -5 3 -13 0 -17 -6z"/>
<path d="M1190 1121 c0 -6 4 -13 10 -16 6 -3 7 1 4 9 -7 18 -14 21 -14 7z"/>
<path d="M1419 1113 c-13 -16 -12 -17 4 -4 16 13 21 21 13 21 -2 0 -10 -8 -17
-17z"/>
<path d="M1250 1028 c-16 -14 -19 -19 -7 -15 21 8 23 -8 2 -17 -8 -3 -15 -11
-15 -17 0 -8 6 -7 18 2 15 13 16 12 4 -3 -8 -10 -10 -23 -6 -30 6 -9 3 -9 -9
1 -15 12 -17 12 -11 -3 3 -9 11 -16 17 -16 6 0 2 -7 -9 -16 -10 -8 -13 -12 -5
-8 10 5 11 1 6 -15 -4 -13 -1 -29 7 -38 9 -12 9 -15 1 -9 -7 4 -13 2 -13 -3 0
-6 6 -11 13 -11 9 0 9 -2 -1 -9 -20 -12 -24 -68 -6 -86 14 -13 14 -15 -3 -16
-16 0 -16 -1 2 -9 11 -5 14 -9 7 -9 -10 -1 -10 -5 2 -17 20 -20 21 -30 1 -14
-13 11 -14 10 -9 -4 3 -9 10 -16 15 -16 5 0 9 -5 9 -11 0 -5 -4 -7 -10 -4 -6
3 -7 -1 -3 -10 5 -13 7 -14 14 -3 8 11 13 5 11 -13 -1 -3 6 -6 13 -6 11 0 12
4 4 13 -7 8 -6 14 2 20 8 5 9 3 4 -6 -6 -10 -4 -12 8 -7 11 4 15 1 12 -13 -3
-17 -1 -18 16 -7 10 6 15 13 9 15 -5 2 -10 8 -10 13 0 4 6 6 14 3 8 -3 17 0
22 7 4 8 3 10 -4 5 -7 -4 -12 -3 -12 2 0 11 30 26 43 23 5 -1 6 3 2 9 -3 6
-10 8 -15 5 -4 -3 -13 2 -19 9 -9 11 -9 16 0 22 8 5 9 3 4 -6 -5 -8 -4 -11 3
-7 11 8 11 25 -1 44 -4 6 -1 14 5 16 8 3 6 6 -5 6 -10 1 -16 5 -12 11 3 5 13
7 23 4 13 -5 14 -4 3 4 -8 6 -12 20 -9 37 4 21 2 25 -11 21 -14 -5 -14 -5 -1
6 17 14 15 52 -2 42 -7 -5 -8 -2 -2 7 13 21 12 32 -5 54 l-16 20 24 -20 c14
-11 21 -14 17 -7 -4 7 -2 20 6 29 11 14 11 16 -1 9 -10 -7 -12 -3 -6 15 7 23
7 24 -9 4 -15 -20 -15 -20 -11 3 3 20 2 21 -18 11 -18 -9 -20 -9 -9 2 23 24
12 29 -23 9 -30 -17 -35 -17 -35 -4 0 8 5 12 10 9 6 -3 10 -1 10 4 0 16 -12
13 -40 -11z m-6 -274 c3 -8 2 -12 -4 -9 -6 3 -10 10 -10 16 0 14 7 11 14 -7z"/>
<path d="M290 1030 c0 -5 5 -10 11 -10 5 0 7 5 4 10 -3 6 -8 10 -11 10 -2 0
-4 -4 -4 -10z"/>
<path d="M316 967 c3 -10 9 -15 12 -12 3 3 0 11 -7 18 -10 9 -11 8 -5 -6z"/>
<path d="M486 948 c3 -5 10 -6 15 -3 13 9 11 12 -6 12 -8 0 -12 -4 -9 -9z"/>
<path d="M2265 930 c-3 -5 -1 -10 4 -10 6 0 11 5 11 10 0 6 -2 10 -4 10 -3 0
-8 -4 -11 -10z"/>
<path d="M1373 915 c0 -8 4 -12 9 -9 4 3 8 9 8 15 0 5 -4 9 -8 9 -5 0 -9 -7
-9 -15z"/>
<path d="M2270 899 c0 -5 5 -7 10 -4 6 3 10 8 10 11 0 2 -4 4 -10 4 -5 0 -10
-5 -10 -11z"/>
<path d="M550 841 c0 -10 19 -25 25 -20 1 2 -3 10 -11 17 -8 7 -14 8 -14 3z"/>
<path d="M2215 789 c-4 -6 -5 -12 -2 -15 2 -3 7 2 10 11 7 17 1 20 -8 4z"/>
<path d="M1390 761 c0 -6 4 -13 10 -16 6 -3 7 1 4 9 -7 18 -14 21 -14 7z"/>
<path d="M2170 755 c-7 -9 -8 -15 -2 -15 5 0 12 7 16 15 3 8 4 15 2 15 -2 0
-9 -7 -16 -15z"/>
<path d="M1963 728 c1 -7 -4 -12 -11 -10 -8 1 -11 -2 -7 -8 5 -8 11 -8 21 1 7
6 11 15 8 20 -8 13 -14 11 -11 -3z"/>
<path d="M1905 680 c-3 -6 1 -7 9 -4 18 7 21 14 7 14 -6 0 -13 -4 -16 -10z"/>
<path d="M715 660 c-3 -5 -1 -10 4 -10 6 0 11 5 11 10 0 6 -2 10 -4 10 -3 0
-8 -4 -11 -10z"/>
<path d="M2075 620 c3 -5 8 -10 11 -10 2 0 4 5 4 10 0 6 -5 10 -11 10 -5 0 -7
-4 -4 -10z"/>
<path d="M1045 481 c-3 -5 -2 -12 3 -15 5 -3 9 1 9 9 0 17 -3 19 -12 6z"/>
<path d="M1876 462 c-3 -5 1 -9 9 -9 8 0 12 4 9 9 -3 4 -7 8 -9 8 -2 0 -6 -4
-9 -8z"/>
<path d="M976 331 c-4 -5 -2 -12 3 -15 5 -4 12 -2 15 3 4 5 2 12 -3 15 -5 4
-12 2 -15 -3z"/>
</g>
</svg>
